<?xml version="1.0" standalone="no"?>
<!DOCTYPE svg PUBLIC "-//W3C//DTD SVG 20010904//EN"
 "http://www.w3.org/TR/2001/REC-SVG-20010904/DTD/svg10.dtd">
<svg version="1.0" xmlns="http://www.w3.org/2000/svg"
 width="1280.000000pt" height="1174.000000pt" viewBox="0 0 1280.000000 1174.000000"
 preserveAspectRatio="xMidYMid meet">
<g transform="translate(0.000000,1174.000000) scale(0.100000,-0.100000)"
fill="#000000" stroke="none">
<path d="M12290 11730 c-8 -5 -25 -10 -36 -10 -12 0 -53 -16 -92 -36 -66 -33
-100 -65 -484 -462 -2071 -2144 -4046 -4249 -4942 -5270 l-100 -113 -115 2
-116 1 0 -63 c0 -35 4 -116 8 -180 l9 -116 -66 -37 c-36 -20 -77 -51 -91 -69
-14 -18 -443 -597 -953 -1287 -827 -1119 -931 -1255 -952 -1252 -14 1 -90 5
-170 8 -220 9 -389 -26 -574 -121 -200 -102 -320 -213 -556 -515 -361 -462
-896 -1088 -1274 -1490 l-71 -75 125 -6 c271 -14 1241 -20 1490 -9 565 23 884
82 1163 215 347 164 563 459 647 884 19 97 22 136 18 249 l-6 133 1222 1060
1222 1060 23 64 c13 36 26 67 30 69 3 2 93 7 199 11 172 7 192 10 187 24 -4 9
-22 60 -41 114 l-34 98 113 120 c526 564 958 1082 1548 1854 935 1224 2056
2843 3058 4418 65 102 85 144 103 211 22 84 22 84 4 158 -48 188 -155 296
-346 349 -76 21 -127 24 -150 9z"/>
</g>
</svg>
